<?xml version="1.0" standalone="no"?>
<!DOCTYPE svg PUBLIC "-//W3C//DTD SVG 20010904//EN"
 "http://www.w3.org/TR/2001/REC-SVG-20010904/DTD/svg10.dtd">
<svg version="1.0" xmlns="http://www.w3.org/2000/svg"
 width="1024.000000pt" height="416.000000pt" viewBox="0 0 1024.000000 416.000000"
 preserveAspectRatio="xMidYMid meet">

<g transform="translate(0.000000,416.000000) scale(0.100000,-0.100000)"
fill="#000000" stroke="none">
<path d="M1545 3209 c-186 -19 -392 -76 -527 -146 l-88 -45 0 -527 c0 -595 0
-598 78 -765 133 -283 495 -652 758 -773 l54 -24 54 24 c109 50 270 170 409
306 208 202 353 424 409 626 21 77 22 100 26 601 3 421 1 523 -10 531 -61 51
-289 135 -448 167 -173 34 -511 46 -715 25z m-234 -229 c17 -10 19 -22 19
-116 0 -103 0 -105 -22 -104 -41 4 -55 0 -78 -20 -50 -44 -60 -25 -60 111 0
94 1 100 19 94 12 -4 29 3 48 19 31 28 45 31 74 16z m141 -15 c19 -17 37 -23
49 -20 18 6 19 0 19 -94 0 -139 -9 -153 -65 -109 -17 13 -40 21 -61 20 l-34
-1 0 104 c0 88 3 106 18 114 27 16 42 13 74 -14z m428 13 c0 -17 -41 -58 -57
-58 -19 0 -65 48 -58 60 9 15 115 13 115 -2z m388 0 c8 -8 12 -48 12 -114 l0
-102 -35 1 c-24 1 -43 -7 -60 -23 -20 -19 -30 -22 -43 -14 -14 9 -18 30 -20
118 l-3 107 23 -6 c17 -4 31 1 48 18 28 27 60 33 78 15z m134 -13 c19 -17 37
-23 49 -20 18 6 19 0 19 -105 0 -127 -6 -136 -65 -96 -26 18 -45 24 -61 20
l-24 -6 0 104 c0 133 18 156 82 103z m-658 -37 c25 -36 20 -57 -19 -74 -19 -7
-37 -14 -40 -14 -8 0 -6 30 7 71 13 44 30 49 52 17z m210 -33 c13 -41 13 -47
0 -52 -20 -7 -63 12 -70 32 -8 19 21 65 40 65 8 0 21 -20 30 -45z m-93 -12
c18 -48 -22 -87 -65 -63 -28 15 -31 26 -16 64 14 38 66 37 81 -1z m-77 -85
c18 -25 21 -64 6 -73 -13 -8 -90 44 -90 62 0 13 31 31 57 32 6 1 19 -9 27 -21z
m140 6 c9 -3 16 -12 16 -19 0 -13 -72 -65 -90 -65 -11 0 -14 49 -4 74 6 16 48
21 78 10z m-548 -271 c36 -74 114 -150 192 -187 55 -26 62 -33 62 -58 0 -21
-7 -32 -26 -40 -56 -26 -192 80 -245 190 -24 48 -40 170 -22 159 6 -4 23 -33
39 -64z m940 5 c-17 -110 -106 -231 -205 -278 -48 -22 -51 -22 -76 -6 -42 27
-30 55 38 89 86 44 158 114 196 192 37 75 58 76 47 3z m-264 -24 c67 -9 127
-20 132 -24 12 -12 -57 -76 -115 -105 -72 -37 -109 -41 -144 -13 -25 19 -41
23 -105 23 -63 0 -80 -4 -104 -22 -35 -28 -41 -28 -110 -2 -64 23 -166 108
-144 119 7 4 51 13 98 19 47 6 96 13 110 15 68 9 272 4 382 -10z m-716 -120
c21 -36 55 -81 76 -100 l38 -34 -26 -6 c-13 -4 -51 -4 -84 -2 l-59 4 17 -28
c9 -16 31 -43 49 -60 27 -26 35 -29 48 -18 20 17 32 5 15 -15 -17 -21 3 -46
22 -27 18 18 30 14 23 -8 -10 -33 4 -42 32 -20 48 38 79 17 61 -41 -14 -48 9
-127 57 -194 22 -31 47 -88 66 -148 39 -127 50 -137 150 -137 102 0 112 9 148
132 19 63 43 118 69 158 57 84 74 152 53 205 -17 42 31 61 64 25 14 -15 21
-17 32 -9 10 9 11 15 2 26 -16 19 -2 30 21 15 24 -14 37 2 19 24 -16 20 -3 31
21 16 16 -10 25 -5 64 39 25 28 46 54 46 58 0 3 -36 5 -80 3 -44 -2 -80 -1
-80 3 0 4 22 31 49 60 26 29 58 74 69 99 l22 45 49 -15 c66 -19 222 -83 239
-97 11 -9 13 -52 10 -216 -4 -204 -4 -207 -37 -293 -63 -168 -186 -342 -368
-519 -165 -161 -352 -299 -406 -299 -63 0 -266 147 -433 314 -149 150 -239
269 -309 411 -76 155 -85 197 -85 414 l0 182 57 26 c31 14 97 41 147 59 50 18
92 33 92 34 1 0 19 -30 40 -66z m304 -194 c0 -6 -5 -19 -12 -30 -7 -10 -9 -22
-6 -25 7 -7 175 -47 198 -47 18 0 203 42 208 47 2 2 -3 14 -12 27 -21 30 -20
38 4 38 13 0 26 -12 37 -35 15 -32 15 -37 1 -51 -17 -17 -197 -67 -238 -67
-29 1 -211 46 -228 57 -17 10 -15 48 4 74 15 22 44 30 44 12z m20 -170 c10
-41 58 -39 51 3 -2 11 27 9 34 -3 17 -28 -42 -68 -80 -54 -16 7 -45 54 -45 74
0 22 34 5 40 -20z m358 -1 c-6 -16 -22 -37 -35 -46 -23 -15 -28 -15 -52 -2
-14 8 -26 23 -26 34 0 26 21 30 28 5 7 -29 52 -24 52 5 0 21 12 35 32 35 9 0
9 -8 1 -31z m-224 -255 c9 -8 16 -22 16 -30 0 -21 -29 -74 -40 -74 -6 0 -10
-4 -10 -9 0 -13 59 -22 97 -15 l33 6 -25 30 c-27 32 -33 76 -13 96 30 30 78 0
58 -37 -15 -30 -32 -26 -24 5 5 20 3 25 -7 22 -8 -2 -15 -16 -17 -30 -2 -20 5
-33 32 -55 20 -15 36 -31 36 -34 0 -29 -175 -38 -202 -10 -11 10 -7 18 18 39
37 31 45 50 32 75 -14 27 -31 21 -23 -10 5 -23 4 -25 -9 -14 -19 16 -21 47 -3
54 22 10 35 7 51 -9z"/>
<path d="M1146 2289 c-17 -25 -12 -45 15 -60 27 -14 24 -26 -17 -72 -59 -65
-77 -117 -72 -207 8 -136 86 -258 237 -372 112 -84 113 -85 106 -150 -8 -66
-6 -68 61 -37 130 62 86 235 -83 331 -51 29 -53 31 -37 49 9 10 28 22 44 27
l28 10 172 -286 c96 -158 184 -304 197 -325 l24 -39 136 224 c74 122 162 268
196 323 33 55 61 102 63 104 4 5 84 -42 84 -50 0 -4 -25 -22 -55 -39 -131 -75
-194 -219 -128 -292 19 -21 84 -58 102 -58 6 0 11 30 13 67 l3 67 95 72 c145
110 216 211 239 340 19 101 3 150 -82 258 l-29 35 27 24 c31 26 28 61 -4 72
-29 9 -50 -5 -60 -40 -9 -33 -591 -1015 -601 -1015 -3 1 -88 141 -190 312
-102 171 -236 396 -297 499 -62 103 -113 196 -113 206 0 43 -49 57 -74 22z
m168 -294 c47 -77 83 -142 80 -144 -2 -2 -22 9 -44 24 -49 34 -95 102 -115
169 -14 47 -20 105 -10 95 2 -3 42 -68 89 -144z m1105 98 c-12 -63 -26 -99
-61 -150 -26 -38 -91 -93 -110 -93 -9 0 164 290 173 290 4 0 2 -21 -2 -47z"/>
<path d="M8495 3014 c-91 -23 -150 -66 -188 -138 -31 -58 -31 -184 0 -241 47
-88 128 -135 233 -135 76 0 130 21 179 71 127 127 87 358 -74 425 -36 15 -121
25 -150 18z m131 -135 c54 -49 69 -134 36 -198 -37 -74 -128 -103 -191 -59
-76 52 -98 122 -63 201 28 64 71 89 140 84 38 -3 59 -10 78 -28z"/>
<path d="M3130 2847 c0 -184 12 -247 57 -289 46 -42 87 -58 153 -58 97 0 154
31 193 105 19 36 22 60 25 223 l4 182 -56 0 -56 0 0 -155 c0 -168 -9 -209 -51
-239 -37 -25 -84 -20 -121 13 l-33 29 -3 176 -3 176 -55 0 -54 0 0 -163z"/>
<path d="M3712 2758 l3 -253 45 0 45 0 5 155 5 155 118 -158 118 -158 42 3 42
3 3 253 2 252 -55 0 -55 0 0 -145 c0 -80 -3 -145 -7 -145 -5 0 -55 66 -113
145 l-105 145 -48 0 -47 0 2 -252z"/>
<path d="M4302 2758 l3 -253 50 0 50 0 3 253 2 252 -55 0 -55 0 2 -252z"/>
<path d="M4530 3003 c0 -4 43 -119 97 -255 l96 -248 48 0 48 0 19 53 c11 28
54 139 96 245 42 106 76 198 76 203 0 6 -24 9 -56 7 l-56 -3 -17 -45 c-10 -25
-37 -100 -61 -168 -24 -67 -47 -119 -51 -115 -6 7 -97 255 -114 311 -6 20 -13
22 -66 22 -32 0 -59 -3 -59 -7z"/>
<path d="M5132 2758 l3 -253 180 0 180 0 3 53 3 52 -130 0 -131 0 0 50 0 50
115 0 115 0 0 50 0 50 -115 0 -115 0 0 50 0 50 131 0 130 0 -3 48 -3 47 -183
3 -182 2 2 -252z"/>
<path d="M5665 2998 c-3 -7 -4 -121 -3 -253 l3 -240 50 0 50 0 5 80 5 80 37 3
c37 3 39 1 84 -70 26 -40 53 -78 61 -85 16 -13 110 -16 118 -4 2 4 -21 45 -51
90 -31 46 -54 84 -52 85 2 1 17 12 34 24 35 24 64 85 64 135 0 49 -39 118 -80
142 -30 17 -57 21 -177 23 -114 3 -144 1 -148 -10z m245 -97 c33 -9 55 -50 46
-85 -9 -36 -61 -58 -129 -54 l-52 3 -3 59 c-2 32 -1 65 2 72 6 15 90 18 136 5z"/>
<path d="M6292 2990 c-44 -27 -72 -76 -72 -128 0 -84 38 -120 165 -157 91 -26
115 -54 75 -90 -28 -25 -107 -16 -159 18 l-40 26 -32 -40 c-30 -38 -31 -41
-13 -55 70 -54 191 -80 266 -55 72 24 114 100 97 179 -11 52 -52 87 -132 112
-92 29 -117 45 -117 74 0 49 88 54 158 8 23 -15 25 -14 43 9 37 46 40 55 21
72 -54 49 -199 64 -260 27z"/>
<path d="M6740 2755 l0 -255 50 0 50 0 0 255 0 255 -50 0 -50 0 0 -255z"/>
<path d="M6970 2955 l0 -55 75 0 75 0 2 -197 3 -198 50 0 50 0 3 198 2 197 70
0 70 0 0 55 0 55 -200 0 -200 0 0 -55z"/>
<path d="M7471 2988 c6 -12 49 -83 95 -157 l84 -135 0 -98 0 -98 50 0 50 0 0
98 0 97 95 155 96 155 -52 3 c-28 2 -57 1 -64 -2 -7 -2 -36 -45 -65 -95 -28
-50 -55 -91 -59 -91 -4 0 -31 43 -61 95 l-54 95 -63 0 c-62 0 -63 0 -52 -22z"/>
<path d="M8914 2997 c-2 -7 -3 -120 -2 -252 l3 -240 50 0 50 0 3 98 3 97 114
0 115 0 0 50 0 50 -116 0 -115 0 3 53 3 52 128 3 127 3 0 49 0 50 -180 0
c-137 0 -182 -3 -186 -13z"/>
<path d="M3440 2299 c-106 -21 -221 -99 -283 -192 -58 -86 -80 -166 -80 -282
0 -114 22 -193 77 -279 119 -185 374 -257 581 -162 60 27 155 100 155 119 0
14 -80 97 -93 97 -5 0 -25 -13 -43 -30 -60 -52 -112 -73 -195 -78 -67 -4 -84
-1 -130 20 -245 114 -261 492 -25 616 44 23 63 27 136 27 94 0 152 -21 218
-79 l34 -30 39 44 c65 74 65 74 16 114 -107 88 -261 124 -407 95z"/>
<path d="M6020 2297 c-178 -40 -324 -189 -361 -365 -16 -80 -7 -223 20 -294
115 -302 512 -391 799 -179 l42 31 -2 193 -3 192 -187 3 -188 2 0 -70 0 -70
105 0 105 0 0 -94 0 -95 -56 -27 c-67 -33 -187 -44 -258 -24 -72 20 -136 76
-176 154 -33 66 -35 74 -35 170 1 119 18 167 86 241 57 62 109 87 190 93 80 5
155 -14 223 -60 l49 -32 29 35 c16 18 38 46 49 61 l19 26 -56 37 c-30 20 -80
46 -110 56 -70 25 -212 33 -284 16z"/>
<path d="M4320 2258 c-10 -24 -56 -133 -103 -243 -46 -110 -122 -288 -167
-395 -46 -107 -89 -210 -97 -227 l-13 -33 83 0 83 0 45 110 44 110 220 0 220
0 43 -110 44 -110 85 0 c77 0 84 2 78 18 -3 9 -92 221 -198 470 l-191 452 -79
0 -78 0 -19 -42z m174 -338 c42 -98 76 -184 76 -190 0 -6 -55 -10 -155 -10
-88 0 -155 4 -155 9 0 5 30 81 66 168 36 87 70 168 75 181 5 12 10 22 13 22 2
0 38 -81 80 -180z"/>
<path d="M6981 2262 c-10 -20 -35 -75 -54 -122 -19 -47 -99 -236 -177 -420
-78 -184 -144 -341 -147 -348 -4 -10 13 -12 78 -10 l84 3 45 108 45 107 219
-2 218 -3 43 -105 43 -105 87 -3 c68 -2 86 0 82 10 -3 7 -65 153 -137 323 -72
171 -159 376 -193 457 l-62 148 -77 0 -78 0 -19 -38z m167 -332 c38 -91 72
-175 76 -187 l7 -23 -156 0 -157 0 6 25 c6 25 131 328 142 347 3 5 8 8 9 6 2
-2 35 -78 73 -168z"/>
<path d="M4990 1825 l0 -465 320 0 320 0 0 70 0 70 -235 0 -235 0 0 395 0 395
-85 0 -85 0 0 -465z"/>
<path d="M7650 1826 l0 -466 85 0 85 0 0 165 0 165 100 0 99 0 113 -165 112
-165 88 0 c48 0 88 3 88 6 0 3 -49 76 -110 163 -60 87 -112 165 -115 172 -3 9
13 22 49 37 229 99 228 406 -2 519 l-57 28 -267 3 -268 3 0 -465z m515 297
c52 -27 77 -72 77 -134 0 -64 -26 -108 -82 -136 -40 -21 -59 -23 -192 -23
l-148 0 0 161 0 161 153 -4 c131 -3 158 -7 192 -25z"/>
<path d="M8444 2268 c7 -13 86 -143 175 -289 l161 -267 0 -176 0 -176 85 0 85
0 0 175 0 175 179 287 180 288 -81 3 c-45 2 -87 1 -93 -2 -7 -2 -68 -95 -136
-205 -68 -111 -126 -201 -129 -201 -3 0 -26 35 -51 78 -25 42 -81 134 -123
205 l-78 127 -94 0 -94 0 14 -22z"/>
</g>
</svg>
